<?xml version="1.0" encoding="UTF-8" standalone="no"?>
<svg
   xmlns:dc="http://purl.org/dc/elements/1.1/"
   xmlns:cc="http://creativecommons.org/ns#"
   xmlns:rdf="http://www.w3.org/1999/02/22-rdf-syntax-ns#"
   xmlns:svg="http://www.w3.org/2000/svg"
   xmlns="http://www.w3.org/2000/svg"
   xmlns:sodipodi="http://sodipodi.sourceforge.net/DTD/sodipodi-0.dtd"
   xmlns:inkscape="http://www.inkscape.org/namespaces/inkscape"
   id="pr0gramm-logo"
   width="22.827372"
   height="18.335901"
   viewBox="0 0 22.827371 18.335901"
   version="1.1"
   inkscape:version="0.91 r13725"
   sodipodi:docname="pr0-tv-logo.working.svg">
  <metadata
     id="metadata4200">
    <rdf:RDF>
      <cc:Work
         rdf:about="">
        <dc:format>image/svg+xml</dc:format>
        <dc:type
           rdf:resource="http://purl.org/dc/dcmitype/StillImage" />
        <dc:title></dc:title>
      </cc:Work>
    </rdf:RDF>
  </metadata>
  <defs
     id="defs4198" />
  <sodipodi:namedview
     pagecolor="#ffffff"
     bordercolor="#666666"
     borderopacity="1"
     objecttolerance="10"
     gridtolerance="10"
     guidetolerance="10"
     inkscape:pageopacity="0"
     inkscape:pageshadow="2"
     inkscape:window-width="3200"
     inkscape:window-height="1745"
     id="namedview4196"
     showgrid="false"
     fit-margin-top="0"
     fit-margin-left="0"
     fit-margin-right="0"
     fit-margin-bottom="0"
     inkscape:zoom="10.253048"
     inkscape:cx="28.061282"
     inkscape:cy="-1.4000075"
     inkscape:window-x="0"
     inkscape:window-y="55"
     inkscape:window-maximized="1"
     inkscape:current-layer="pr0gramm-logo" />
  <rect
     style="fill:#d23c22"
     id="pr0gramm-logo-background-3"
     x="-11.258621"
     y="-38.468967"
     width="22"
     height="22"
     rx="2" />
  <g
     id="pr0gramm-logo-sign-6"
     transform="translate(-8.2586207,-34.468966)"
     style="fill:#000000">
    <rect
       x="8"
       y="10"
       width="7"
       height="2"
       rx="1"
       id="rect4192-7"
       style="fill:#000000" />
    <path
       inkscape:connector-curvature="0"
       d="M 2,9.7 C 2.4,9.3 2.9,9 3.3,8.6 3.8,8.2 4.2,7.8 4.7,7.5 5.1,7.1 5.5,6.8 5.8,6.5 5.5,6.3 5.2,6 4.7,5.6 4.3,5.2 3.9,4.8 3.4,4.4 2.9,4 2.5,3.7 2,3.3 1.6,2.9 1.2,2.6 1,2.4 0.7,2.1 0.6,1.8 0.6,1.5 0.6,1.2 0.7,0.9 0.9,0.7 1.1,0.5 1.3,0.4 1.6,0.4 1.8,0.4 1.9,0.5 2.2,0.6 2.2,0.6 2.4,0.8 2.7,1 3,1.3 3.4,1.6 3.8,2 4.2,2.3 4.6,2.7 5.1,3.1 5.6,3.5 6,3.9 6.4,4.2 6.8,4.5 7.2,4.8 7.5,5.1 7.8,5.4 8,5.5 8.1,5.6 8.4,5.9 8.5,6.2 8.5,6.6 8.5,6.9 8.4,7.2 8.1,7.5 7.7,7.8 7.2,8.2 6.7,8.6 6.2,9 5.7,9.5 5.1,9.9 4.6,10.3 4.1,10.8 3.5,11.2 3,11.6 2.6,12 2.1,12.3 1.9,12.4 1.7,12.5 1.5,12.5 1.2,12.5 1,12.4 0.8,12.2 0.6,12 0.5,11.8 0.5,11.5 0.5,11.2 0.6,10.9 0.8,10.6 1.1,10.3 1.5,10 2,9.7 Z"
       id="path4194-5"
       style="fill:#000000" />
  </g>
  <text
     xml:space="preserve"
     style="font-style:normal;font-variant:normal;font-stretch:normal;font-size:11.99094582px;line-height:1000%;font-family:Roboto;-inkscape-font-specification:'Roboto Semi-Light';text-align:start;letter-spacing:0px;word-spacing:27.11286163px;writing-mode:lr-tb;text-anchor:start;fill:#000000;fill-opacity:1;stroke:none;stroke-width:1px;stroke-linecap:butt;stroke-linejoin:miter;stroke-opacity:1"
     x="14.298946"
     y="-25.792753"
     id="text4226"
     sodipodi:linespacing="1000%"><tspan
       sodipodi:role="line"
       id="tspan4228"
       x="14.298946"
       y="-25.792753">TV</tspan></text>
  <rect
     style="fill:#2a0c07;fill-opacity:1"
     id="rect4192"
     rx="1"
     height="2"
     width="7"
     y="9.6000004"
     x="7.5" />
  <path
     inkscape:connector-curvature="0"
     style="fill:#2a0c07;fill-opacity:1"
     id="path4194"
     d="M 1.5,9.3 C 1.9,8.9 2.4,8.6 2.8,8.2 3.3,7.8 3.7,7.4 4.2,7.1 4.6,6.7 5,6.4 5.3,6.1 5,5.9 4.7,5.6 4.2,5.2 3.8,4.8 3.4,4.4 2.9,4 2.4,3.6 2,3.3 1.5,2.9 1.1,2.5 0.7,2.2 0.5,2 0.2,1.7 0.1,1.4 0.1,1.1 0.1,0.8 0.2,0.5 0.4,0.3 0.6,0.1 0.8,0 1.1,0 c 0.2,0 0.3,0.1 0.6,0.2 0,0 0.2,0.2 0.5,0.4 0.3,0.3 0.7,0.6 1.1,1 C 3.7,1.9 4.1,2.3 4.6,2.7 5.1,3.1 5.5,3.5 5.9,3.8 6.3,4.1 6.7,4.4 7,4.7 7.3,5 7.5,5.1 7.6,5.2 7.9,5.5 8,5.8 8,6.2 8,6.5 7.9,6.8 7.6,7.1 7.2,7.4 6.7,7.8 6.2,8.2 5.7,8.6 5.2,9.1 4.6,9.5 4.1,9.9 3.6,10.4 3,10.8 2.5,11.2 2.1,11.6 1.6,11.9 1.4,12 1.2,12.1 1,12.1 0.7,12.1 0.5,12 0.3,11.8 0.1,11.6 0,11.4 0,11.1 0,10.8 0.1,10.5 0.3,10.2 0.6,9.9 1,9.6 1.5,9.3 Z" />
  <path
     inkscape:connector-curvature="0"
     id="path4254"
     d="m 10.551463,12.192421 a 0.56013412,0.56013412 0 0 0 -0.5587019,0.560442 l 0,5.023094 a 0.56013412,0.56013412 0 0 0 0.5587019,0.560442 l 0.979904,0 a 0.56013412,0.56013412 0 0 0 0.558702,-0.560442 l 0,-5.023094 a 0.56013412,0.56013412 0 0 0 -0.558702,-0.560442 l -0.979904,0 z"
     style="color:#000000;font-style:normal;font-variant:normal;font-weight:normal;font-stretch:normal;font-size:medium;line-height:1000%;font-family:Roboto;-inkscape-font-specification:'Roboto Semi-Light';text-indent:0;text-align:start;text-decoration:none;text-decoration-line:none;text-decoration-style:solid;text-decoration-color:#000000;letter-spacing:0px;word-spacing:27.11286163px;text-transform:none;direction:ltr;block-progression:tb;writing-mode:lr-tb;baseline-shift:baseline;text-anchor:start;white-space:normal;clip-rule:nonzero;display:inline;overflow:visible;visibility:visible;opacity:1;isolation:auto;mix-blend-mode:normal;color-interpolation:sRGB;color-interpolation-filters:linearRGB;solid-color:#000000;solid-opacity:1;fill:#2a0c07;fill-opacity:1;fill-rule:nonzero;stroke:none;stroke-width:1.25699532;stroke-linecap:round;stroke-linejoin:round;stroke-miterlimit:4;stroke-dasharray:none;stroke-dashoffset:0;stroke-opacity:1;color-rendering:auto;image-rendering:auto;shape-rendering:auto;text-rendering:auto;enable-background:accumulate" />
  <path
     sodipodi:nodetypes="cccccccccccccc"
     inkscape:connector-curvature="0"
     id="path4256"
     d="m 15.75905,9.6373609 c -0.383272,1.302e-4 -0.649357,0.3817871 -0.516929,0.7414551 l 2.812654,7.597298 c 0.07988,0.216479 0.286182,0.360263 0.516929,0.360285 l 0.887657,0 c 0.230748,-2.2e-5 0.437047,-0.143806 0.51693,-0.360285 l 2.816136,-7.595558 C 22.926179,10.021034 22.660832,9.638254 22.277238,9.6373609 l -1.096518,0 c -0.234722,1.293e-4 -0.4436,0.1489285 -0.520411,0.3707271 l -1.648257,4.760278 -1.641295,-4.760278 C 17.293946,9.7862897 17.085069,9.6374905 16.850347,9.6373609 Z"
     style="color:#000000;font-style:normal;font-variant:normal;font-weight:normal;font-stretch:normal;font-size:medium;line-height:1000%;font-family:Roboto;-inkscape-font-specification:'Roboto Semi-Light';text-indent:0;text-align:start;text-decoration:none;text-decoration-line:none;text-decoration-style:solid;text-decoration-color:#000000;letter-spacing:0px;word-spacing:27.11286163px;text-transform:none;direction:ltr;block-progression:tb;writing-mode:lr-tb;baseline-shift:baseline;text-anchor:start;white-space:normal;clip-rule:nonzero;display:inline;overflow:visible;visibility:visible;opacity:1;isolation:auto;mix-blend-mode:normal;color-interpolation:sRGB;color-interpolation-filters:linearRGB;solid-color:#000000;solid-opacity:1;fill:#2a0c07;fill-opacity:1;fill-rule:nonzero;stroke:none;stroke-width:1.23662114;stroke-linecap:round;stroke-linejoin:round;stroke-miterlimit:4;stroke-dasharray:none;stroke-dashoffset:0;stroke-opacity:1;color-rendering:auto;image-rendering:auto;shape-rendering:auto;text-rendering:auto;enable-background:accumulate" />
  <g
     style="font-style:normal;font-variant:normal;font-stretch:normal;font-size:11.99094582px;line-height:1000%;font-family:Roboto;-inkscape-font-specification:'Roboto Semi-Light';text-align:start;letter-spacing:0px;word-spacing:27.11286163px;writing-mode:lr-tb;text-anchor:start;fill:#000000;fill-opacity:1;stroke:#000000;stroke-width:1.23662114;stroke-linecap:round;stroke-linejoin:round;stroke-miterlimit:4;stroke-dasharray:none;stroke-opacity:1"
     id="text4226-3-6"
     transform="matrix(0.89113795,0,0,0.89113795,-15.668582,-18.60084)">
    <path
       d="m 22.669083,6.9575867 0,5.6360123 -1.097922,0 0,-5.6360123 z"
       style="fill:#000000;stroke:#000000;stroke-width:1.25699532;stroke-linecap:round;stroke-linejoin:round;stroke-miterlimit:4;stroke-dasharray:none"
       id="path4254-2"
       inkscape:connector-curvature="0"
       sodipodi:nodetypes="ccccc" />
    <path
       d="m 31.06237,11.110773 2.435661,-7.0317996 1.22954,0 -3.161675,8.5248126 -0.995342,0 -3.155821,-8.5248126 1.223686,0 2.423951,7.0317996 z"
       style="fill:#000000;stroke:#000000;stroke-width:1.23662114;stroke-linecap:round;stroke-linejoin:round;stroke-miterlimit:4;stroke-dasharray:none"
       id="path4256-9"
       inkscape:connector-curvature="0" />
  </g>
  <rect
     style="fill:#2a0c07;fill-opacity:1"
     id="pr0gramm-logo-background-3-1"
     x="-4.2702942"
     y="21.380505"
     width="22"
     height="22"
     rx="2" />
</svg>
