<?xml version="1.0" encoding="UTF-8" standalone="no"?>
<svg
   xmlns:dc="http://purl.org/dc/elements/1.1/"
   xmlns:cc="http://creativecommons.org/ns#"
   xmlns:rdf="http://www.w3.org/1999/02/22-rdf-syntax-ns#"
   xmlns:svg="http://www.w3.org/2000/svg"
   xmlns="http://www.w3.org/2000/svg"
   xmlns:sodipodi="http://sodipodi.sourceforge.net/DTD/sodipodi-0.dtd"
   xmlns:inkscape="http://www.inkscape.org/namespaces/inkscape"
   id="pr0gramm-logo"
   width="186.73372"
   height="151.99557"
   viewBox="0 0 186.73372 151.99557"
   version="1.1"
   inkscape:version="0.91 r13725"
   sodipodi:docname="pr0tv-logo.onpage.svg">
  <metadata
     id="metadata4200">
    <rdf:RDF>
      <cc:Work
         rdf:about="">
        <dc:format>image/svg+xml</dc:format>
        <dc:type
           rdf:resource="http://purl.org/dc/dcmitype/StillImage" />
        <dc:title></dc:title>
      </cc:Work>
    </rdf:RDF>
  </metadata>
  <defs
     id="defs4198" />
  <sodipodi:namedview
     pagecolor="#ffffff"
     bordercolor="#666666"
     borderopacity="1"
     objecttolerance="10"
     gridtolerance="10"
     guidetolerance="10"
     inkscape:pageopacity="0"
     inkscape:pageshadow="2"
     inkscape:window-width="3200"
     inkscape:window-height="1745"
     id="namedview4196"
     showgrid="false"
     fit-margin-top="0"
     fit-margin-left="0"
     fit-margin-right="0"
     fit-margin-bottom="2"
     inkscape:zoom="1"
     inkscape:cx="140.66059"
     inkscape:cy="-61.60273"
     inkscape:window-x="0"
     inkscape:window-y="55"
     inkscape:window-maximized="1"
     inkscape:current-layer="pr0gramm-logo" />
  <g
     id="g5061"
     transform="matrix(4.4109743,0,0,4.4109743,0,69.114189)"
     style="fill:#d23c22;fill-opacity:1">
    <rect
       x="13.908847"
       y="2.1346347"
       width="12.98159"
       height="3.7090259"
       rx="1.8545129"
       id="rect4192"
       style="fill:#d23c22;fill-opacity:1" />
    <path
       d="M 2.7817694,1.5782802 C 3.5235746,0.83647504 4.450831,0.28012116 5.1926362,-0.46168401 6.1198927,-1.2034892 6.8616978,-1.9452944 7.7889543,-2.5016482 8.5307595,-3.2434534 9.2725646,-3.7998073 9.8289185,-4.3561612 9.2725646,-4.7270637 8.7162108,-5.2834176 7.7889543,-6.0252228 7.0471491,-6.767028 6.305344,-7.5088331 5.3780875,-8.2506383 4.450831,-8.9924435 3.7090259,-9.5487974 2.7817694,-10.290603 c -0.7418052,-0.741805 -1.4836103,-1.298159 -1.85451294,-1.669061 -0.55635387,-0.556354 -0.74180517,-1.112708 -0.74180517,-1.669062 0,-0.556354 0.1854513,-1.112708 0.55635388,-1.48361 0.37090263,-0.370903 0.74180513,-0.556354 1.29815903,-0.556354 0.3709026,0 0.5563539,0.185451 1.1127078,0.370903 0,0 0.3709026,0.370902 0.9272564,0.741805 0.5563539,0.556354 1.2981591,1.112707 2.0399643,1.854513 0.7418051,0.556354 1.4836103,1.298159 2.4108668,2.039964 0.9272564,0.741805 1.6690615,1.4836102 2.4108665,2.0399641 0.741805,0.5563539 1.483611,1.1127078 2.039965,1.6690616 0.556353,0.5563539 0.927256,0.7418052 1.112707,0.9272565 0.556354,0.5563539 0.741805,1.1127078 0.741805,1.8545129 0,0.5563539 -0.185451,1.1127078 -0.741805,1.6690617 -0.741805,0.5563538 -1.669061,1.298159 -2.596318,2.03996419 C 10.570724,0.28012116 9.6434672,1.2073776 8.5307595,1.9491828 7.603503,2.690988 6.6762465,3.6182444 5.5635388,4.3600496 4.6362823,5.1018548 3.8944772,5.84366 2.9672207,6.4000138 2.5963181,6.5854651 2.2254155,6.7709164 1.8545129,6.7709164 1.2981591,6.7709164 0.92725646,6.5854651 0.55635388,6.2145625 0.18545129,5.84366 0,5.4727574 0,4.9164035 0,4.3600496 0.18545129,3.8036957 0.55635388,3.2473419 1.1127078,2.690988 1.8545129,2.1346341 2.7817694,1.5782802 Z"
       id="path4194"
       style="fill:#d23c22;fill-opacity:1"
       inkscape:connector-curvature="0" />
    <path
       style="color:#000000;font-style:normal;font-variant:normal;font-weight:normal;font-stretch:normal;font-size:medium;line-height:1000%;font-family:Roboto;-inkscape-font-specification:'Roboto Semi-Light';text-indent:0;text-align:start;text-decoration:none;text-decoration-line:none;text-decoration-style:solid;text-decoration-color:#000000;letter-spacing:0px;word-spacing:27.11286163px;text-transform:none;direction:ltr;block-progression:tb;writing-mode:lr-tb;baseline-shift:baseline;text-anchor:start;white-space:normal;clip-rule:nonzero;display:inline;overflow:visible;visibility:visible;opacity:1;isolation:auto;mix-blend-mode:normal;color-interpolation:sRGB;color-interpolation-filters:linearRGB;solid-color:#000000;solid-opacity:1;fill:#d23c22;fill-opacity:1;fill-rule:nonzero;stroke:none;stroke-width:1.25699532;stroke-linecap:round;stroke-linejoin:round;stroke-miterlimit:4;stroke-dasharray:none;stroke-dashoffset:0;stroke-opacity:1;color-rendering:auto;image-rendering:auto;shape-rendering:auto;text-rendering:auto;enable-background:accumulate"
       d="m 19.567825,6.9423124 a 1.038776,1.038776 0 0 0 -1.03612,1.0393469 l 0,9.3153927 a 1.038776,1.038776 0 0 0 1.03612,1.039347 l 1.817244,0 a 1.038776,1.038776 0 0 0 1.03612,-1.039347 l 0,-9.3153927 a 1.038776,1.038776 0 0 0 -1.03612,-1.0393469 l -1.817244,0 z"
       id="path4254"
       inkscape:connector-curvature="0" />
    <path
       style="color:#000000;font-style:normal;font-variant:normal;font-weight:normal;font-stretch:normal;font-size:medium;line-height:1000%;font-family:Roboto;-inkscape-font-specification:'Roboto Semi-Light';text-indent:0;text-align:start;text-decoration:none;text-decoration-line:none;text-decoration-style:solid;text-decoration-color:#000000;letter-spacing:0px;word-spacing:27.11286163px;text-transform:none;direction:ltr;block-progression:tb;writing-mode:lr-tb;baseline-shift:baseline;text-anchor:start;white-space:normal;clip-rule:nonzero;display:inline;overflow:visible;visibility:visible;opacity:1;isolation:auto;mix-blend-mode:normal;color-interpolation:sRGB;color-interpolation-filters:linearRGB;solid-color:#000000;solid-opacity:1;fill:#d23c22;fill-opacity:1;fill-rule:nonzero;stroke:none;stroke-width:1.23662114;stroke-linecap:round;stroke-linejoin:round;stroke-miterlimit:4;stroke-dasharray:none;stroke-dashoffset:0;stroke-opacity:1;color-rendering:auto;image-rendering:auto;shape-rendering:auto;text-rendering:auto;enable-background:accumulate"
       d="m 29.225362,2.2039204 c -0.710783,2.414e-4 -1.204241,0.7080291 -0.958652,1.375038 l 5.216104,14.0892876 c 0.148138,0.401463 0.530728,0.668112 0.958651,0.668153 l 1.646172,0 c 0.427925,-4.1e-5 0.810509,-0.26669 0.958653,-0.668153 L 42.268851,3.5821853 C 42.516895,2.9154471 42.024806,2.2055766 41.313426,2.2039204 l -2.033507,0 C 38.844624,2.2041602 38.457257,2.4801102 38.31481,2.8914386 L 35.258096,11.719436 32.214293,2.8914386 C 32.071846,2.4801108 31.684481,2.2041607 31.249186,2.2039204 Z"
       id="path4256"
       inkscape:connector-curvature="0"
       sodipodi:nodetypes="cccccccccccccc" />
  </g>
</svg>
