<?xml version="1.0" encoding="UTF-8" standalone="no"?>
<!-- Created with Inkscape (http://www.inkscape.org/) -->

<svg
   xmlns:dc="http://purl.org/dc/elements/1.1/"
   xmlns:cc="http://creativecommons.org/ns#"
   xmlns:rdf="http://www.w3.org/1999/02/22-rdf-syntax-ns#"
   xmlns:svg="http://www.w3.org/2000/svg"
   xmlns="http://www.w3.org/2000/svg"
   xmlns:sodipodi="http://sodipodi.sourceforge.net/DTD/sodipodi-0.dtd"
   xmlns:inkscape="http://www.inkscape.org/namespaces/inkscape"
   width="210mm"
   height="297mm"
   viewBox="0 0 744.09448819 1052.3622047"
   id="svg5114"
   version="1.1"
   inkscape:version="0.91 r13725"
   sodipodi:docname="pr0tv-logo-chromestore.svg">
  <defs
     id="defs5116" />
  <sodipodi:namedview
     id="base"
     pagecolor="#ffffff"
     bordercolor="#666666"
     borderopacity="1.0"
     inkscape:pageopacity="0.0"
     inkscape:pageshadow="2"
     inkscape:zoom="0.7"
     inkscape:cx="-674.07501"
     inkscape:cy="414.45263"
     inkscape:document-units="px"
     inkscape:current-layer="layer1"
     showgrid="false"
     inkscape:window-width="3200"
     inkscape:window-height="1745"
     inkscape:window-x="0"
     inkscape:window-y="55"
     inkscape:window-maximized="1" />
  <metadata
     id="metadata5119">
    <rdf:RDF>
      <cc:Work
         rdf:about="">
        <dc:format>image/svg+xml</dc:format>
        <dc:type
           rdf:resource="http://purl.org/dc/dcmitype/StillImage" />
        <dc:title></dc:title>
      </cc:Work>
    </rdf:RDF>
  </metadata>
  <g
     inkscape:label="Layer 1"
     inkscape:groupmode="layer"
     id="layer1">
    <rect
       style="fill:#d23c22"
       id="pr0gramm-logo-background-3-1"
       x="166.4511"
       y="507.10516"
       width="322.66159"
       height="322.66159"
       rx="29.332872"
       inkscape:export-xdpi="4.4628806"
       inkscape:export-ydpi="4.4628806" />
    <g
       id="g5676"
       transform="matrix(0.76105002,0,0,0.76105002,26.040555,418.81618)"
       style="fill:#ffffff">
      <rect
         x="339.0798"
         y="334.32697"
         width="102.66505"
         height="29.332872"
         rx="14.666436"
         id="rect4192"
         style="fill:#ffffff" />
      <path
         d="m 251.0809,329.92696 c 5.86657,-5.86658 13.19979,-10.26651 19.06636,-16.13308 7.33322,-5.86658 13.1998,-11.73315 20.53302,-16.13308 5.86657,-5.86658 11.73314,-10.26651 16.13308,-14.66644 -4.39994,-2.93329 -8.79987,-7.33322 -16.13308,-13.19979 -5.86658,-5.86658 -11.73315,-11.73315 -19.06637,-17.59972 -7.33322,-5.86658 -13.19979,-10.26651 -20.53301,-16.13308 -5.86658,-5.86658 -11.73315,-10.26651 -14.66644,-13.1998 -4.39993,-4.39993 -5.86657,-8.79986 -5.86657,-13.19979 0,-4.39993 1.46664,-8.79986 4.39993,-11.73315 2.93329,-2.93329 5.86657,-4.39993 10.2665,-4.39993 2.93329,0 4.39993,1.46664 8.79987,2.93329 0,0 2.93328,2.93328 7.33321,5.86657 4.39993,4.39993 10.26651,8.79986 16.13308,14.66644 5.86658,4.39993 11.73315,10.2665 19.06637,16.13308 7.33322,5.86657 13.19979,11.73315 19.06637,16.13308 5.86657,4.39993 11.73315,8.79986 16.13308,13.19979 4.39993,4.39993 7.33322,5.86658 8.79986,7.33322 4.39993,4.39993 5.86657,8.79986 5.86657,14.66644 0,4.39993 -1.46664,8.79986 -5.86657,13.19979 -5.86658,4.39993 -13.19979,10.2665 -20.53301,16.13308 -7.33322,5.86657 -14.66644,13.19979 -23.4663,19.06636 -7.33322,5.86658 -14.66644,13.1998 -23.4663,19.06637 -7.33322,5.86658 -13.19979,11.73315 -20.53301,16.13308 -2.93329,1.46665 -5.86657,2.93329 -8.79986,2.93329 -4.39993,0 -7.33322,-1.46664 -10.26651,-4.39993 -2.93328,-2.93329 -4.39993,-5.86658 -4.39993,-10.26651 0,-4.39993 1.46665,-8.79986 4.39993,-13.19979 4.39994,-4.39993 10.26651,-8.79986 17.59973,-13.19979 z"
         id="path4194"
         style="fill:#ffffff"
         inkscape:connector-curvature="0" />
      <path
         style="color:#000000;font-style:normal;font-variant:normal;font-weight:normal;font-stretch:normal;font-size:medium;line-height:1000%;font-family:Roboto;-inkscape-font-specification:'Roboto Semi-Light';text-indent:0;text-align:start;text-decoration:none;text-decoration-line:none;text-decoration-style:solid;text-decoration-color:#000000;letter-spacing:0px;word-spacing:27.11286163px;text-transform:none;direction:ltr;block-progression:tb;writing-mode:lr-tb;baseline-shift:baseline;text-anchor:start;white-space:normal;clip-rule:nonzero;display:inline;overflow:visible;visibility:visible;opacity:1;isolation:auto;mix-blend-mode:normal;color-interpolation:sRGB;color-interpolation-filters:linearRGB;solid-color:#000000;solid-opacity:1;fill:#ffffff;fill-opacity:1;fill-rule:nonzero;stroke:none;stroke-width:1.25699532;stroke-linecap:round;stroke-linejoin:round;stroke-miterlimit:4;stroke-dasharray:none;stroke-dashoffset:0;stroke-opacity:1;color-rendering:auto;image-rendering:auto;shape-rendering:auto;text-rendering:auto;enable-background:accumulate"
         d="m 383.83356,372.34845 a 8.2151714,8.2151714 0 0 0 -8.19414,8.21966 l 0,73.67083 a 8.2151714,8.2151714 0 0 0 8.19414,8.2198 l 14.37179,0 a 8.2151714,8.2151714 0 0 0 8.19413,-8.2198 l 0,-73.67083 a 8.2151714,8.2151714 0 0 0 -8.19413,-8.21966 l -14.37179,0 z"
         id="path4254"
         inkscape:connector-curvature="0" />
      <path
         style="color:#000000;font-style:normal;font-variant:normal;font-weight:normal;font-stretch:normal;font-size:medium;line-height:1000%;font-family:Roboto;-inkscape-font-specification:'Roboto Semi-Light';text-indent:0;text-align:start;text-decoration:none;text-decoration-line:none;text-decoration-style:solid;text-decoration-color:#000000;letter-spacing:0px;word-spacing:27.11286163px;text-transform:none;direction:ltr;block-progression:tb;writing-mode:lr-tb;baseline-shift:baseline;text-anchor:start;white-space:normal;clip-rule:nonzero;display:inline;overflow:visible;visibility:visible;opacity:1;isolation:auto;mix-blend-mode:normal;color-interpolation:sRGB;color-interpolation-filters:linearRGB;solid-color:#000000;solid-opacity:1;fill:#ffffff;fill-opacity:1;fill-rule:nonzero;stroke:none;stroke-width:1.23662114;stroke-linecap:round;stroke-linejoin:round;stroke-miterlimit:4;stroke-dasharray:none;stroke-dashoffset:0;stroke-opacity:1;color-rendering:auto;image-rendering:auto;shape-rendering:auto;text-rendering:auto;enable-background:accumulate"
         d="m 460.21035,334.87483 c -5.62121,0.002 -9.5238,5.59935 -7.58152,10.87443 l 41.25169,111.42531 c 1.17185,3.17499 4.19724,5.28373 7.58153,5.28417 l 13.01866,0 c 3.38428,-4.4e-4 6.40996,-2.10918 7.58152,-5.28417 l 41.30274,-111.39979 c 1.96163,-5.27288 -1.93011,-10.8869 -7.55601,-10.89995 l -16.08204,0 c -3.4425,0.002 -6.50603,2.18427 -7.63256,5.43714 l -24.1741,69.81634 -24.07187,-69.81634 c -1.12638,-3.25287 -4.19006,-5.43524 -7.63256,-5.43714 z"
         id="path4256"
         inkscape:connector-curvature="0"
         sodipodi:nodetypes="cccccccccccccc" />
    </g>
  </g>
</svg>
